# xmcd
#
# Track frame offsets:
# 150
# 55415
# 97890
# 129550
# 186205
# 224235
# 246650
# 295710
#
# Disc length: 4477 seconds
#
#
# Revision: 0
# Processed by: cddbd v1.4PL0 Copyright (c) Steve Scherf et al.
# Submitted via: FreeRIP 2.30 
#
DISCID=81117b08
DTITLE=The Dead, Vernon Downs 1 of 3
DYEAR=2003
DGENRE=Rock
TTITLE0=Jam - Jack Straw
TTITLE1=Night of a Thousand Stars
TTITLE2=Down the Road
TTITLE3=Loser
TTITLE4=Big Boss Man with Willie Nelson
TTITLE5=Me and My Uncle with Willie Nelson
TTITLE6=West La Fadeaway with Willie Nelson
TTITLE7=Scarlet Begonias
EXTD=
EXTT0=
EXTT1=
EXTT2=
EXTT3=
EXTT4=
EXTT5=
EXTT6=
EXTT7=
PLAYORDER=
